<svg xmlns="http://www.w3.org/2000/svg" width="1050" height="300" style="shape-rendering:geometricPrecision;text-rendering:geometricPrecision;image-rendering:optimizeQuality;fill-rule:evenodd;clip-rule:evenodd"><path style="opacity:.975" fill="#34599f" d="M923.5 36.5c8.673-.166 17.34 0 26 .5a6.977 6.977 0 0 1 3.5 2.5 183.94 183.94 0 0 1 1.5 32h-35c-.166-10.339 0-20.672.5-31 .69-1.85 1.856-3.184 3.5-4z"/><path style="opacity:.991" fill="#f37f33" d="M103.5 36.5c12.671-.167 25.338 0 38 .5 2.696.69 4.863 2.19 6.5 4.5a16177.794 16177.794 0 0 1 33 121 8216.359 8216.359 0 0 1 33-122c1.8-1.817 3.966-2.984 6.5-3.5a361.232 361.232 0 0 1 38 0c2.696.69 4.863 2.19 6.5 4.5a5863.459 5863.459 0 0 1 1.5 180h-34v-119c-1.951-.273-3.451.393-4.5 2l-29 116a338.482 338.482 0 0 1-36.5 1 4983.578 4983.578 0 0 0-28.5-117c-1.049-1.607-2.549-2.273-4.5-2v119h-34c-.167-59.668 0-119.334.5-179 1.707-3.09 4.207-5.09 7.5-6z"/><path style="opacity:.977" fill="#34599f" d="M446.5 36.5c9.082-.414 18.082.086 27 1.5a6.977 6.977 0 0 1 2.5 3.5l1 79L552.5 39c3.333-2 6.667-2 10 0a165.293 165.293 0 0 1 18 19.5 66.737 66.737 0 0 1-2.5 6 5146.203 5146.203 0 0 1-47.5 48.5l70 108a384.59 384.59 0 0 1-48-.5l-47.5-81-28 28c-.5 17.997-.667 35.997-.5 54h-37c-.167-59.334 0-118.668.5-178 1.018-3.515 3.185-5.848 6.5-7z"/><path style="opacity:.982" fill="#34599f" d="M622.5 36.5c8.007-.166 16.007 0 24 .5 1.829.273 3.329 1.107 4.5 2.5a1210.955 1210.955 0 0 1 2 68c15.975-17.119 35.142-21.952 57.5-14.5 16.043 7.23 24.21 19.73 24.5 37.5.5 30.332.667 60.665.5 91h-35c.445-30.699-.055-61.366-1.5-92-3.197-8.775-9.531-13.108-19-13-16.509.842-25.509 9.509-27 26-.5 26.331-.667 52.665-.5 79h-35c-.167-60.334 0-120.668.5-181 1.25-1.694 2.75-3.027 4.5-4z"/><path style="opacity:.991" fill="#f37f33" d="M310.5 80.5c4.633-1.042 7.799.625 9.5 5a15939.761 15939.761 0 0 0 32.5 95 3372.472 3372.472 0 0 1 32.5-98c2.579-1.847 5.412-2.347 8.5-1.5a398.493 398.493 0 0 1 21 8c1.394.956 2.061 2.29 2 4a8036.556 8036.556 0 0 1-68 190 342.33 342.33 0 0 1-37 0 3316.111 3316.111 0 0 0 22-61 9160.655 9160.655 0 0 0-32.5-85.5A830.829 830.829 0 0 1 286.5 93a6.202 6.202 0 0 1 2-3.5 6916.638 6916.638 0 0 0 22-9z"/><path style="opacity:.982" fill="#34599f" d="M819.5 89.5c38.904-1.99 63.404 15.677 73.5 53 5.511 33.799-6.322 59.299-35.5 76.5-24.559 9.374-48.226 7.374-71-6-11.424-8.095-18.924-18.928-22.5-32.5-7.056-25.559-2.723-48.892 13-70 11.807-11.874 25.974-18.874 42.5-21zm2 29c21.129-.38 33.296 9.954 36.5 31 1.362 11.16-.305 21.827-5 32-9.018 13.428-21.185 17.595-36.5 12.5-9.056-4.058-14.889-10.891-17.5-20.5-3.765-13.685-2.765-27.018 3-40 4.688-7.541 11.188-12.541 19.5-15z"/><path style="opacity:.986" fill="#34599f" d="M919.5 92.5h35c.42 49.682-.08 99.349-1.5 149-2.926 22.416-15.759 33.082-38.5 32-8.27.177-16.27-1.156-24-4a559.856 559.856 0 0 0 6-29c5.386 1.413 10.719 1.246 16-.5 2.5-1.167 4.333-3 5.5-5.5a3500.62 3500.62 0 0 0 1.5-142z"/></svg>